IKResults
version=1
nRows=14
nColumns=40
inDegrees=yes

Units are S.I. units (second, meters, Newtons, ...)
Angles are in degrees.

endheader
time	pelvis_tilt	pelvis_list	pelvis_rotation	pelvis_tx	pelvis_ty	pelvis_tz	hip_flexion_r	hip_adduction_r	hip_rotation_r	knee_angle_r	knee_angle_r_beta	ankle_angle_r	subtalar_angle_r	mtp_angle_r	hip_flexion_l	hip_adduction_l	hip_rotation_l	knee_angle_l	knee_angle_l_beta	ankle_angle_l	subtalar_angle_l	mtp_angle_l	lumbar_extension	lumbar_bending	lumbar_rotation	arm_flex_r	arm_add_r	arm_rot_r	elbow_flex_r	pro_sup_r	wrist_flex_r	wrist_dev_r	arm_flex_l	arm_add_l	arm_rot_l	elbow_flex_l	pro_sup_l	wrist_flex_l	wrist_dev_l
      0.00000000	      7.74061995	     -6.72636480	      8.27636106	     -0.96124434	      0.91428106	     -1.01282275	     14.59811020	      6.88319199	    -10.78303136	    -31.80770799	     -0.55514923	      5.46996017	    -11.24868962	      5.58924786	    -17.85792638	     10.81670716	     -0.93743596	    -46.85103165	     -0.81770476	     -9.50193240	     16.99878414	      7.06817809	    -20.72345448	      9.34077409	     -9.53902546	     -7.19962857	    -10.46710090	     -0.49980530	     20.15704740	     89.95437384	      0.00000000	      0.00000000	     14.26498126	      8.93967249	      4.61573131	     46.82281153	     89.95437384	      0.00000000	      0.00000000
      0.01000000	      8.03463701	     -6.42331105	      8.13696675	     -0.94884831	      0.91731692	     -1.01208114	     12.91410960	      6.92503785	    -10.34548501	    -31.04604959	     -0.54185579	      6.16176644	    -10.91436891	      5.42436550	    -16.59543658	     10.36830296	     -1.15773667	    -48.87563161	     -0.85304070	     -7.31268798	     17.13620738	      6.75060782	    -21.07359515	      8.98509389	     -9.12404119	     -6.86520644	    -10.44322377	     -0.25115634	     20.78577736	     89.95437384	      0.00000000	      0.00000000	     13.95978147	      8.66053525	      4.97820514	     45.32114072	     89.95437384	      0.00000000	      0.00000000
      0.02000000	      8.41973672	     -6.45573907	      8.28712445	     -0.93618190	      0.92027689	     -1.01133105	     11.05623339	      7.34067943	    -10.22545708	    -29.97914492	     -0.52323479	      6.54509447	    -10.97487965	      5.35216779	    -15.21680810	     10.56761366	     -1.10257169	    -50.71031018	     -0.88506188	     -4.90184847	     17.01101513	      6.36498767	    -21.41173590	      9.05321555	     -8.88971312	     -6.57974010	    -10.54432072	      0.50557996	     21.51782594	     89.95437384	      0.00000000	      0.00000000	     13.48741597	      8.38339260	      5.51151058	     43.91329603	     89.95437384	      0.00000000	      0.00000000
      0.03000000	      8.73767560	     -6.09032165	      8.25124319	     -0.92363479	      0.92316754	     -1.01073484	      9.30663434	      7.28743115	     -9.88743799	    -29.17986588	     -0.50928473	      7.20536771	    -10.76106887	      5.19882709	    -13.90327753	     10.10210250	     -1.28296534	    -52.09832384	     -0.90928729	     -2.77957337	     17.15364692	      6.11024572	    -21.74516423	      8.65232391	     -8.56488141	     -6.17729070	    -10.52505001	      0.70926267	     22.01199518	     89.95437384	      0.00000000	      0.00000000	     13.09261090	      8.10771514	      6.00922621	     42.30710406	     89.95437384	      0.00000000	      0.00000000
      0.04000000	      9.02219881	     -5.72486113	      8.22271217	     -0.91132252	      0.92590186	     -1.01011511	      7.56506252	      7.22035348	     -9.61001848	    -28.24827927	     -0.49302548	      7.70417073	    -10.55035585	      5.04781281	    -12.46785900	      9.66063514	     -1.35649441	    -53.25060982	     -0.92939847	     -0.82691496	     17.23323585	      5.87767866	    -22.06837632	      8.23622524	     -8.27902661	     -5.76928751	    -10.55105656	      1.02898279	     22.67806905	     89.95437384	      0.00000000	      0.00000000	     12.66456738	      7.91250950	      6.48709711	     40.70633385	     89.95437384	      0.00000000	      0.00000000
      0.05000000	      9.64259927	     -5.50501362	      8.31168089	     -0.89861627	      0.92905753	     -1.00942079	      5.27008892	      7.40350609	     -9.38968351	    -26.89927809	     -0.46948097	      7.87359849	    -10.64060435	      4.84429690	    -11.46193300	      9.52973528	     -1.26658370	    -53.92372908	     -0.94114662	      0.79740423	     17.14356540	      5.79112988	    -22.69075511	      8.01578016	     -8.05162962	     -5.32413676	    -10.65796058	      1.64657622	     23.38677640	     89.95437384	      0.00000000	      0.00000000	     12.10895802	      7.76089161	      7.11342706	     39.20747089	     89.95437384	      0.00000000	      0.00000000
      0.06000000	      9.71179243	     -4.95508571	      8.09797753	     -0.88662219	      0.93128377	     -1.00853354	      3.84879241	      7.06069784	     -9.09779758	    -26.14469560	     -0.45631102	      8.39646455	    -10.39057901	      4.66440799	     -9.83608032	      8.78950445	     -1.16819066	    -54.51161553	     -0.95140717	      2.29932454	     17.01465453	      5.58343796	    -22.84386520	      7.31262153	     -7.70337946	     -4.83324890	    -10.66068799	      1.83271567	     24.00473435	     89.95437384	      0.00000000	      0.00000000	     11.65095870	      7.69029877	      7.50976230	     37.50057006	     89.95437384	      0.00000000	      0.00000000
      0.07000000	      9.89049293	     -4.49030961	      8.00336285	     -0.87438356	      0.93346813	     -1.00797468	      2.22884202	      6.80963283	     -8.95642977	    -25.21747728	     -0.44012801	      8.82265806	    -10.16553735	      4.50095869	     -8.35753781	      8.17557007	     -1.07497694	    -54.79076534	     -0.95627925	      4.10745117	     17.07073050	      5.37707984	    -23.05131257	      6.76378541	     -7.43103330	     -4.38813133	    -10.74910520	      2.07269507	     24.74848858	     89.95437384	      0.00000000	      0.00000000	     11.12574891	      7.59241942	      8.01472850	     35.80379728	     89.95437384	      0.00000000	      0.00000000
      0.08000000	     10.06701999	     -4.02082252	      7.81931786	     -0.86212098	      0.93548413	     -1.00713730	      0.59939269	      6.56096827	     -8.77381707	    -24.26414073	     -0.42348915	      9.28408124	     -9.98361461	      4.35730697	     -6.89021425	      7.59400092	     -0.81053242	    -54.84726166	     -0.95726530	      5.79243663	     17.25373879	      5.23620951	    -23.26034597	      6.14721619	     -7.08450944	     -3.92103420	    -10.83338450	      2.33298966	     25.48027084	     89.95437384	      0.00000000	      0.00000000	     10.60726890	      7.54950241	      8.45053711	     33.82392733	     89.95437384	      0.00000000	      0.00000000
      0.09000000	     10.73626508	     -3.42229778	      7.44083042	     -0.84912488	      0.93799748	     -1.00618672	     -1.74307985	      6.25177087	     -8.31065931	    -23.11735429	     -0.40347395	      9.48168313	     -9.88990943	      4.06942433	     -6.27750788	      6.88010269	     -0.21655421	    -54.34534288	     -0.94850517	      6.93452986	     17.30598251	      5.25142237	    -23.95531584	      5.38356149	     -6.59762709	     -3.63439514	    -11.06078926	      2.97816870	     26.62458952	     89.95437384	      0.00000000	      0.00000000	      9.96120359	      7.45579986	      9.55018470	     32.46812878	     89.95437384	      0.00000000	      0.00000000
      0.10000000	     10.73145722	     -2.94967290	      7.27439609	     -0.83713317	      0.93917547	     -1.00531170	     -3.03502314	      5.95709628	     -8.07801166	    -22.39354495	     -0.39084109	     10.00245779	     -9.74565277	      3.91512844	     -4.50554544	      6.30316690	      0.19112312	    -54.20992485	     -0.94614168	      8.48930900	     17.50781247	      5.17302772	    -23.98202720	      4.73895331	     -6.34471824	     -3.15326207	    -11.15911396	      3.13686645	     27.44700781	     89.95437384	      0.00000000	      0.00000000	      9.29718903	      7.63097900	      9.71456758	     30.93269469	     89.95437384	      0.00000000	      0.00000000
      0.11000000	     10.77285114	     -2.41909977	      6.93348225	     -0.82504537	      0.94012548	     -1.00444765	     -4.35821887	      5.55763440	     -7.65799044	    -21.72643240	     -0.37919778	     10.49908499	     -9.63428675	      3.75752110	     -2.91027854	      5.59008104	      0.74510398	    -53.78315630	     -0.93869316	      9.44122335	     17.72652836	      5.19666574	    -24.05313183	      3.98009441	     -5.88119845	     -2.78303632	    -11.35733177	      3.33628868	     28.49211739	     89.95437384	      0.00000000	      0.00000000	      8.68385626	      7.70947073	     10.11099024	     29.35357776	     89.95437384	      0.00000000	      0.00000000
      0.12000000	     10.68827468	     -2.06242704	      6.80219426	     -0.81306948	      0.94055129	     -1.00338094	     -5.28524168	      5.27970291	     -7.99770513	    -21.44522835	     -0.37428984	     10.85330258	     -9.54593606	      3.63816008	     -0.98815878	      5.36768816	      1.66573248	    -53.37370059	     -0.93154681	     10.03293498	     17.71180880	      5.14075091	    -23.96912769	      3.41745486	     -5.72538498	     -2.23708349	    -11.39006987	      3.40636935	     29.29957495	     89.95437384	      0.00000000	      0.00000000	      7.73369778	      8.00754452	     10.20604427	     28.29930965	     89.95437384	      0.00000000	      0.00000000
      0.13000000	     11.35499255	     -1.39807394	      6.13438420	     -0.80016031	      0.94212943	     -1.00260033	     -7.61816975	      4.81011420	     -6.82778893	    -20.18850063	     -0.35235581	     11.00819780	     -9.64712548	      3.41990463	     -0.54209555	      4.45721343	      2.44683051	    -52.12709849	     -0.90978950	     10.95805026	     18.04387184	      5.78487716	    -24.66073151	      2.50764403	     -4.88583404	     -2.16339572	    -11.88776445	      3.98703526	     30.88415363	     89.95437384	      0.00000000	      0.00000000	      7.36259891	      7.85841710	     11.35269345	     26.35420561	     89.95437384	      0.00000000	      0.00000000
